<svg xmlns="http://www.w3.org/2000/svg" xmlns:xlink="http://www.w3.org/1999/xlink" width="500" zoomAndPan="magnify" viewBox="0 0 375 374.999991" height="500" preserveAspectRatio="xMidYMid meet" version="1.0"><defs><g/><clipPath id="id1"><path d="M 104.085938 37.5 L 270.585938 37.5 L 270.585938 182 L 104.085938 182 Z M 104.085938 37.5 " clip-rule="nonzero"/></clipPath><clipPath id="id2"><path d="M 163 174 L 270.585938 174 L 270.585938 252 L 163 252 Z M 163 174 " clip-rule="nonzero"/></clipPath><clipPath id="id3"><path d="M 104.085938 181 L 270.585938 181 L 270.585938 267 L 104.085938 267 Z M 104.085938 181 " clip-rule="nonzero"/></clipPath><clipPath id="id4"><path d="M 104.085938 145 L 245 145 L 245 219 L 104.085938 219 Z M 104.085938 145 " clip-rule="nonzero"/></clipPath></defs><rect x="-37.5" width="450" fill="#ffffff" y="-37.499999" height="449.999989" fill-opacity="1"/><rect x="-37.5" width="450" fill="#faf9f2" y="-37.499999" height="449.999989" fill-opacity="1"/><rect x="-37.5" width="450" fill="#ffffff" y="-37.499999" height="449.999989" fill-opacity="1"/><rect x="-37.5" width="450" fill="#faf9f2" y="-37.499999" height="449.999989" fill-opacity="1"/><g clip-path="url(#id1)"><path fill="#e0e3d4" d="M 127.699219 170.730469 C 135.90625 166.640625 139.304688 159.773438 147.472656 156.375 C 154.632812 153.394531 161.65625 149.09375 168.90625 146.609375 C 184.617188 141.214844 202.453125 161.613281 216.089844 166.078125 C 223.878906 168.625 233.199219 172.308594 239.808594 176.757812 C 241.410156 177.832031 242.992188 178.945312 244.570312 180.078125 C 251.851562 175.765625 262.203125 174.132812 270.457031 174.910156 L 270.519531 131.351562 L 270.554688 108.609375 C 270.605469 69.402344 233.421875 37.566406 187.492188 37.5 C 141.558594 37.433594 104.28125 69.160156 104.222656 108.367188 L 104.203125 123.054688 L 104.117188 181.199219 C 104.375 181.371094 104.601562 181.542969 104.832031 181.714844 C 105.300781 181.347656 105.792969 181.019531 106.304688 180.722656 C 113.03125 177.03125 120.589844 174.265625 127.699219 170.730469 Z M 127.699219 170.730469 " fill-opacity="1" fill-rule="nonzero"/></g><g clip-path="url(#id2)"><path fill="#a8b2a0" d="M 186.429688 226.261719 C 193.402344 229.507812 200.363281 232.335938 207.523438 234.996094 C 211.171875 236.359375 214.886719 236.910156 218.554688 238.273438 C 222.832031 239.859375 225.945312 239.683594 230.40625 240.132812 C 234.359375 240.53125 237.078125 243.027344 240.839844 243.84375 C 245.234375 244.789062 250.054688 245.414062 254.519531 246.082031 C 260.988281 247.050781 265.65625 248.074219 270.46875 251.167969 L 270.46875 174.761719 C 260.703125 173.859375 248.011719 176.332031 240.941406 182.597656 C 231.699219 190.796875 202.882812 207.75 177.417969 212.511719 C 172.933594 214.824219 168.265625 216.671875 163.414062 218.054688 C 164.722656 219.039062 166.035156 219.945312 167.222656 220.714844 C 172.910156 224.421875 180.421875 223.460938 186.429688 226.261719 Z M 186.429688 226.261719 " fill-opacity="1" fill-rule="nonzero"/></g><g clip-path="url(#id3)"><path fill="#61745c" d="M 270.472656 267 L 270.472656 251.179688 C 265.664062 248.09375 260.980469 247.066406 254.523438 246.089844 C 250.058594 245.425781 245.238281 244.804688 240.847656 243.851562 C 237.085938 243.039062 234.367188 240.539062 230.414062 240.140625 C 225.949219 239.695312 222.835938 239.871094 218.558594 238.285156 C 214.886719 236.921875 211.171875 236.371094 207.527344 235.007812 C 200.367188 232.335938 193.417969 229.507812 186.4375 226.269531 C 180.425781 223.472656 172.917969 224.433594 167.230469 220.726562 C 164.09375 218.671875 160.117188 215.785156 157.675781 212.742188 C 154.210938 208.425781 150.015625 205.515625 145.828125 201.734375 C 142.492188 198.726562 138.34375 197.714844 134.308594 196.273438 C 130.992188 195.089844 128.917969 193 126.0625 191.90625 C 123.523438 190.929688 120.289062 190.695312 117.785156 189.277344 C 115.429688 187.9375 114.046875 185.9375 111.300781 184.996094 C 108.957031 184.179688 107.453125 183.929688 105.449219 182.296875 C 105.042969 181.96875 104.601562 181.632812 104.132812 181.308594 L 104.132812 267 Z M 270.472656 267 " fill-opacity="1" fill-rule="nonzero"/></g><path fill="#faf9f8" d="M 211.035156 89.464844 C 211.035156 90.203125 211 90.933594 210.925781 91.667969 C 210.855469 92.398438 210.746094 93.125 210.605469 93.847656 C 210.460938 94.566406 210.28125 95.28125 210.070312 95.984375 C 209.855469 96.6875 209.609375 97.378906 209.328125 98.058594 C 209.046875 98.738281 208.734375 99.402344 208.386719 100.050781 C 208.042969 100.699219 207.664062 101.332031 207.257812 101.941406 C 206.847656 102.554688 206.410156 103.144531 205.945312 103.710938 C 205.480469 104.28125 204.988281 104.824219 204.46875 105.34375 C 203.949219 105.863281 203.40625 106.359375 202.839844 106.824219 C 202.269531 107.292969 201.683594 107.730469 201.070312 108.136719 C 200.460938 108.546875 199.832031 108.921875 199.183594 109.269531 C 198.535156 109.617188 197.875 109.929688 197.195312 110.210938 C 196.515625 110.492188 195.828125 110.742188 195.125 110.953125 C 194.421875 111.167969 193.710938 111.347656 192.988281 111.492188 C 192.269531 111.632812 191.542969 111.742188 190.8125 111.8125 C 190.082031 111.886719 189.351562 111.921875 188.617188 111.921875 C 187.882812 111.921875 187.148438 111.886719 186.417969 111.8125 C 185.6875 111.742188 184.964844 111.632812 184.242188 111.492188 C 183.523438 111.347656 182.8125 111.167969 182.109375 110.953125 C 181.40625 110.742188 180.714844 110.492188 180.039062 110.210938 C 179.359375 109.929688 178.695312 109.617188 178.046875 109.269531 C 177.402344 108.921875 176.773438 108.546875 176.160156 108.136719 C 175.550781 107.730469 174.960938 107.292969 174.394531 106.824219 C 173.828125 106.359375 173.285156 105.863281 172.765625 105.34375 C 172.246094 104.824219 171.753906 104.28125 171.285156 103.710938 C 170.820312 103.144531 170.382812 102.554688 169.976562 101.941406 C 169.570312 101.332031 169.191406 100.699219 168.84375 100.050781 C 168.5 99.402344 168.1875 98.738281 167.90625 98.058594 C 167.625 97.378906 167.375 96.6875 167.164062 95.984375 C 166.949219 95.28125 166.773438 94.566406 166.628906 93.847656 C 166.484375 93.125 166.378906 92.398438 166.304688 91.667969 C 166.234375 90.933594 166.199219 90.203125 166.199219 89.464844 C 166.199219 88.730469 166.234375 87.996094 166.304688 87.265625 C 166.378906 86.53125 166.484375 85.804688 166.628906 85.085938 C 166.773438 84.363281 166.949219 83.652344 167.164062 82.945312 C 167.375 82.242188 167.625 81.550781 167.90625 80.871094 C 168.1875 80.191406 168.5 79.527344 168.84375 78.878906 C 169.191406 78.230469 169.570312 77.601562 169.976562 76.988281 C 170.382812 76.378906 170.820312 75.789062 171.285156 75.21875 C 171.753906 74.652344 172.246094 74.105469 172.765625 73.585938 C 173.285156 73.066406 173.828125 72.574219 174.394531 72.105469 C 174.960938 71.640625 175.550781 71.203125 176.160156 70.792969 C 176.773438 70.386719 177.402344 70.007812 178.046875 69.660156 C 178.695312 69.316406 179.359375 69 180.039062 68.71875 C 180.714844 68.4375 181.40625 68.191406 182.109375 67.976562 C 182.8125 67.761719 183.523438 67.585938 184.242188 67.441406 C 184.964844 67.296875 185.6875 67.191406 186.417969 67.117188 C 187.148438 67.046875 187.882812 67.011719 188.617188 67.011719 C 189.351562 67.011719 190.082031 67.046875 190.8125 67.117188 C 191.542969 67.191406 192.269531 67.296875 192.988281 67.441406 C 193.710938 67.585938 194.421875 67.761719 195.125 67.976562 C 195.828125 68.191406 196.515625 68.4375 197.195312 68.71875 C 197.875 69 198.535156 69.316406 199.183594 69.660156 C 199.832031 70.007812 200.460938 70.386719 201.070312 70.792969 C 201.683594 71.203125 202.269531 71.640625 202.839844 72.105469 C 203.40625 72.574219 203.949219 73.066406 204.46875 73.585938 C 204.988281 74.105469 205.480469 74.652344 205.945312 75.21875 C 206.410156 75.789062 206.847656 76.378906 207.257812 76.988281 C 207.664062 77.601562 208.042969 78.230469 208.386719 78.878906 C 208.734375 79.527344 209.046875 80.191406 209.328125 80.871094 C 209.609375 81.550781 209.855469 82.242188 210.070312 82.945312 C 210.28125 83.652344 210.460938 84.363281 210.605469 85.085938 C 210.746094 85.804688 210.855469 86.53125 210.925781 87.265625 C 211 87.996094 211.035156 88.730469 211.035156 89.464844 Z M 211.035156 89.464844 " fill-opacity="1" fill-rule="nonzero"/><g clip-path="url(#id4)"><path fill="#97a58b" d="M 111.28125 184.898438 C 114.019531 185.855469 115.386719 187.859375 117.746094 189.1875 C 120.246094 190.609375 123.480469 190.855469 126.019531 191.832031 C 128.875 192.925781 130.945312 195.019531 134.257812 196.199219 C 138.292969 197.648438 142.445312 198.664062 145.769531 201.675781 C 149.953125 205.464844 154.140625 208.382812 157.597656 212.703125 C 159.113281 214.589844 161.214844 216.425781 163.339844 218.03125 C 168.191406 216.65625 172.863281 214.816406 177.351562 212.511719 C 185.234375 211.050781 193.4375 208.417969 201.289062 205.242188 C 218.796875 198.152344 234.527344 188.34375 240.921875 182.691406 C 242.054688 181.699219 243.269531 180.824219 244.570312 180.0625 C 242.992188 178.933594 241.410156 177.820312 239.808594 176.742188 C 233.199219 172.296875 223.878906 168.609375 216.089844 166.0625 C 202.453125 161.613281 184.617188 141.214844 168.90625 146.605469 C 161.65625 149.09375 154.632812 153.394531 147.472656 156.371094 C 139.304688 159.769531 135.929688 166.648438 127.699219 170.726562 C 120.589844 174.265625 113.03125 177.03125 106.304688 180.722656 C 105.792969 181.019531 105.300781 181.351562 104.832031 181.714844 C 105.039062 181.871094 105.242188 182.03125 105.433594 182.1875 C 107.453125 183.824219 108.9375 184.078125 111.28125 184.898438 Z M 196.726562 197.605469 C 196.527344 197.347656 196.328125 197.101562 196.121094 196.855469 C 196.328125 197.101562 196.527344 197.351562 196.726562 197.605469 Z M 195.480469 196.105469 C 194.96875 195.507812 194.390625 194.902344 193.78125 194.285156 C 194.390625 194.902344 194.957031 195.507812 195.480469 196.105469 Z M 189.066406 189.9375 C 189.667969 190.453125 190.238281 190.953125 190.777344 191.441406 L 191.304688 191.917969 L 190.777344 191.441406 C 190.238281 190.957031 189.667969 190.457031 189.066406 189.9375 C 187.601562 188.671875 186.128906 187.367188 184.652344 186.023438 C 186.128906 187.367188 187.601562 188.671875 189.066406 189.9375 Z M 164.808594 166.089844 C 164.792969 166.070312 164.777344 166.050781 164.757812 166.035156 C 164.777344 166.050781 164.792969 166.070312 164.808594 166.089844 Z M 164.382812 165.636719 L 164.359375 165.609375 Z M 161.621094 162.976562 L 161.605469 162.960938 Z M 154.890625 157.953125 L 154.300781 157.542969 Z M 154.121094 157.417969 L 153.4375 156.941406 Z M 153.308594 156.851562 L 152.539062 156.3125 Z M 153.308594 156.851562 " fill-opacity="1" fill-rule="nonzero"/></g><g fill="#61745c" fill-opacity="1"><g transform="translate(75.504246, 323.306434)"><g><path d="M 5.011719 -21.195312 C 5.011719 -20.605469 4.898438 -19.878906 4.816406 -19.234375 C 4.480469 -16.964844 3.582031 -12.207031 3.582031 -8.121094 C 3.582031 -4.367188 4.03125 -1.175781 4.589844 0.785156 L 6.605469 0.644531 L 6.523438 -0.335938 C 6.523438 -0.644531 6.578125 -1.175781 6.664062 -1.566406 C 6.914062 -2.882812 7.921875 -5.824219 8.625 -7.785156 L 7.417969 -8.679688 C 6.972656 -7.585938 6.355469 -5.964844 5.878906 -4.703125 C 5.710938 -6.046875 5.65625 -7.167969 5.65625 -8.511719 C 5.65625 -11.617188 6.46875 -16.574219 7 -19.121094 C 7.113281 -19.625 7.363281 -20.523438 7.53125 -21 Z M 11.84375 -7.753906 C 11.589844 -6.578125 11.394531 -5.488281 11.394531 -4.480469 C 11.394531 -1.875 13.46875 -0.335938 18.113281 -0.335938 C 21 -0.335938 23.320312 -0.558594 25.03125 -0.894531 L 25 -3.246094 C 22.761719 -2.742188 20.632812 -2.519531 18.140625 -2.519531 C 14.335938 -2.519531 13.496094 -3.75 13.496094 -5.011719 C 13.496094 -5.765625 13.605469 -6.550781 13.859375 -7.558594 Z M 12.792969 -16.574219 C 15.820312 -16.265625 21.195312 -16.265625 24.160156 -16.574219 L 24.160156 -18.871094 C 21.390625 -18.476562 15.789062 -18.367188 12.765625 -18.871094 Z M 12.792969 -16.574219 "/></g></g></g><g fill="#61745c" fill-opacity="1"><g transform="translate(103.50043, 323.306434)"><g><path d="M 10.359375 -17.945312 L 10.21875 -17.890625 C 10.414062 -19.820312 10.640625 -21.390625 10.777344 -22.0625 L 8.121094 -22.144531 C 8.257812 -21.445312 8.230469 -20.71875 8.230469 -20.074219 C 8.230469 -19.765625 8.175781 -18.785156 8.089844 -17.46875 C 6.664062 -17.246094 5.039062 -17.078125 4.144531 -17.023438 C 3.472656 -16.964844 2.941406 -16.964844 2.324219 -16.996094 L 2.546875 -14.671875 C 4.285156 -14.894531 6.691406 -15.230469 7.953125 -15.371094 C 7.894531 -14.503906 7.839844 -13.605469 7.785156 -12.710938 C 6.382812 -10.527344 3.191406 -6.214844 1.652344 -4.285156 L 3.050781 -2.351562 C 4.394531 -4.199219 6.214844 -6.859375 7.558594 -8.902344 C 7.558594 -8.484375 7.53125 -8.121094 7.53125 -7.839844 C 7.476562 -4.757812 7.476562 -3.386719 7.449219 -0.726562 C 7.449219 -0.28125 7.390625 0.53125 7.363281 0.925781 L 9.800781 0.925781 C 9.742188 0.421875 9.6875 -0.28125 9.660156 -0.757812 C 9.546875 -3.246094 9.546875 -4.925781 9.546875 -7.449219 C 9.546875 -8.425781 9.574219 -9.546875 9.632812 -10.695312 C 12.152344 -13.074219 15.089844 -14.671875 18.28125 -14.671875 C 21.949219 -14.671875 23.628906 -11.898438 23.628906 -9.769531 C 23.65625 -4.984375 19.457031 -2.828125 14.78125 -2.128906 L 15.789062 -0.0273438 C 21.839844 -1.175781 25.925781 -4.144531 25.898438 -9.714844 C 25.871094 -14.027344 22.453125 -16.714844 18.589844 -16.714844 C 15.957031 -16.714844 12.851562 -15.761719 9.800781 -13.269531 C 9.855469 -13.859375 9.882812 -14.476562 9.9375 -15.035156 C 10.359375 -15.707031 10.835938 -16.460938 11.171875 -16.964844 Z M 10.359375 -17.945312 "/></g></g></g><g fill="#61745c" fill-opacity="1"><g transform="translate(131.496613, 323.306434)"><g><path d="M 9.6875 -22.035156 C 9.6875 -20.15625 9.378906 -18.003906 8.988281 -16.015625 C 7.308594 -15.875 5.683594 -15.734375 4.757812 -15.707031 C 3.890625 -15.679688 3.164062 -15.652344 2.296875 -15.707031 L 2.519531 -13.269531 C 3.246094 -13.382812 4.367188 -13.523438 5.011719 -13.605469 C 5.738281 -13.691406 7.082031 -13.832031 8.511719 -13.972656 C 7.585938 -10.273438 5.515625 -4.003906 2.6875 -0.222656 L 4.984375 0.699219 C 7.921875 -4.003906 9.800781 -10.21875 10.808594 -14.195312 C 12.011719 -14.308594 13.101562 -14.390625 13.773438 -14.390625 C 15.539062 -14.390625 16.6875 -13.941406 16.6875 -11.421875 C 16.6875 -8.398438 16.265625 -4.816406 15.398438 -2.941406 C 14.8125 -1.734375 14 -1.511719 12.960938 -1.511719 C 12.207031 -1.511719 10.722656 -1.765625 9.574219 -2.128906 L 9.9375 0.222656 C 10.808594 0.421875 12.152344 0.644531 13.1875 0.644531 C 15.007812 0.644531 16.378906 0.167969 17.246094 -1.679688 C 18.394531 -4.003906 18.871094 -8.371094 18.871094 -11.675781 C 18.871094 -15.425781 16.828125 -16.378906 14.363281 -16.378906 C 13.691406 -16.378906 12.542969 -16.292969 11.253906 -16.210938 C 11.5625 -17.695312 11.816406 -19.316406 11.953125 -20.128906 C 12.066406 -20.664062 12.179688 -21.25 12.289062 -21.753906 Z M 19.765625 -17.917969 C 21.726562 -15.59375 23.910156 -10.722656 24.722656 -7.867188 L 26.90625 -8.902344 C 25.953125 -11.480469 23.574219 -16.574219 21.839844 -18.8125 Z M 19.765625 -17.917969 "/></g></g></g><g fill="#61745c" fill-opacity="1"><g transform="translate(159.492797, 323.306434)"><g><path d="M 26.375 -17.804688 L 26.375 -19.710938 L 16.742188 -19.710938 C 17.164062 -20.773438 17.554688 -21.894531 17.863281 -23.015625 L 15.847656 -23.433594 C 14.949219 -20.101562 13.355469 -16.964844 11.3125 -14.921875 C 11.816406 -14.613281 12.65625 -13.972656 13.019531 -13.605469 C 14.054688 -14.753906 15.035156 -16.183594 15.847656 -17.804688 Z M 11.757812 -13.328125 L 6.4375 -13.328125 L 6.4375 -16.996094 L 12.710938 -16.996094 L 12.710938 -18.898438 L 8.230469 -18.898438 L 8.230469 -23.378906 L 6.242188 -23.378906 L 6.242188 -18.898438 L 1.371094 -18.898438 L 1.371094 -16.996094 L 4.589844 -16.996094 L 4.589844 -13.160156 C 4.589844 -9.042969 4.226562 -3.582031 0.894531 0.953125 C 1.398438 1.289062 2.101562 1.820312 2.4375 2.210938 C 5.570312 -2.101562 6.300781 -7.082031 6.410156 -11.449219 L 9.828125 -11.449219 C 9.632812 -3.554688 9.433594 -0.8125 8.988281 -0.140625 C 8.761719 0.167969 8.539062 0.253906 8.121094 0.253906 C 7.699219 0.253906 6.664062 0.222656 5.515625 0.113281 C 5.824219 0.617188 6.019531 1.429688 6.046875 1.988281 C 7.222656 2.042969 8.371094 2.042969 9.042969 1.960938 C 9.742188 1.902344 10.21875 1.707031 10.640625 1.09375 C 11.367188 0.140625 11.535156 -3.023438 11.757812 -12.402344 Z M 25.476562 -12.179688 C 24.46875 -11.085938 22.902344 -9.742188 21.503906 -8.652344 C 21.109375 -10.050781 20.773438 -11.535156 20.523438 -13.074219 C 22.425781 -13.972656 24.160156 -14.949219 25.394531 -15.902344 L 23.910156 -16.996094 C 21.417969 -15.0625 16.125 -12.992188 12.207031 -12.121094 C 12.683594 -11.703125 13.214844 -10.917969 13.46875 -10.414062 C 13.941406 -10.554688 14.445312 -10.695312 14.980469 -10.863281 L 14.980469 2.128906 L 16.964844 2.128906 L 16.964844 -11.5625 C 17.582031 -11.785156 18.226562 -12.039062 18.84375 -12.320312 C 19.878906 -5.933594 21.867188 -0.671875 25.671875 2.042969 C 25.980469 1.511719 26.625 0.699219 27.101562 0.363281 C 24.804688 -1.121094 23.183594 -3.722656 22.035156 -6.914062 C 23.601562 -8.035156 25.535156 -9.519531 26.960938 -10.890625 Z M 25.476562 -12.179688 "/></g></g></g><g fill="#61745c" fill-opacity="1"><g transform="translate(187.48898, 323.306434)"><g><path d="M 7.585938 -3.917969 C 6.382812 -3.917969 4.757812 -5.460938 4.757812 -8.960938 C 4.757812 -12.683594 8.007812 -17.246094 13.328125 -17.917969 C 13.019531 -15.371094 12.488281 -12.738281 11.785156 -10.441406 C 10.359375 -5.765625 8.820312 -3.917969 7.585938 -3.917969 Z M 14.894531 0.726562 C 21.503906 -0.140625 25.335938 -4.03125 25.335938 -9.855469 C 25.335938 -15.453125 21.195312 -20.046875 14.699219 -20.046875 C 7.921875 -20.046875 2.546875 -14.78125 2.546875 -8.761719 C 2.546875 -4.199219 5.039062 -1.34375 7.503906 -1.34375 C 10.078125 -1.34375 12.289062 -4.285156 14 -9.96875 C 14.753906 -12.570312 15.285156 -15.371094 15.652344 -17.945312 C 20.355469 -17.554688 23.015625 -14.109375 23.015625 -9.910156 C 23.015625 -5.125 19.542969 -2.492188 15.988281 -1.707031 C 15.316406 -1.566406 14.476562 -1.429688 13.605469 -1.371094 Z M 14.894531 0.726562 "/></g></g></g><g fill="#61745c" fill-opacity="1"><g transform="translate(215.485163, 323.306434)"><g><path d="M 6.746094 -21.753906 C 6.914062 -20.941406 7 -19.960938 7 -18.953125 C 7 -16.015625 6.71875 -9.015625 6.71875 -4.898438 C 6.71875 -0.390625 9.464844 1.289062 13.4375 1.289062 C 19.542969 1.289062 23.125 -2.183594 25 -4.816406 L 23.460938 -6.746094 C 21.472656 -3.863281 18.589844 -1.007812 13.496094 -1.007812 C 10.917969 -1.007812 8.960938 -2.070312 8.960938 -5.125 C 8.960938 -9.265625 9.183594 -15.820312 9.296875 -18.953125 C 9.351562 -19.851562 9.433594 -20.832031 9.574219 -21.726562 Z M 6.746094 -21.753906 "/></g></g></g><g fill="#61745c" fill-opacity="1"><g transform="translate(243.481347, 323.306434)"><g><path d="M 8.230469 -1.597656 C 7.140625 -1.597656 5.234375 -2.6875 5.234375 -3.949219 C 5.234375 -5.207031 6.886719 -6.777344 9.128906 -7.839844 C 9.15625 -5.824219 9.210938 -3.949219 9.210938 -2.941406 C 9.210938 -2.070312 8.875 -1.597656 8.230469 -1.597656 Z M 11.144531 -11.589844 C 11.144531 -12.710938 11.171875 -14.027344 11.199219 -15.34375 C 13.214844 -15.566406 15.34375 -15.929688 16.964844 -16.292969 L 16.9375 -18.507812 C 15.371094 -18.03125 13.269531 -17.636719 11.253906 -17.386719 C 11.28125 -18.617188 11.3125 -19.710938 11.339844 -20.382812 C 11.367188 -21.027344 11.421875 -21.78125 11.480469 -22.285156 L 9.042969 -22.285156 C 9.15625 -21.808594 9.210938 -20.886719 9.210938 -20.328125 C 9.210938 -19.820312 9.183594 -18.617188 9.15625 -17.164062 C 8.398438 -17.105469 7.671875 -17.078125 7.027344 -17.078125 C 6.019531 -17.078125 5.011719 -17.105469 3.5 -17.300781 L 3.554688 -15.175781 C 4.621094 -15.0625 5.824219 -15.035156 7.082031 -15.035156 C 7.671875 -15.035156 8.371094 -15.0625 9.128906 -15.117188 C 9.097656 -13.886719 9.097656 -12.597656 9.097656 -11.480469 L 9.097656 -9.910156 C 5.90625 -8.539062 3.023438 -6.132812 3.023438 -3.863281 C 3.023438 -1.371094 6.636719 0.726562 8.820312 0.726562 C 10.304688 0.726562 11.28125 -0.0859375 11.28125 -2.660156 C 11.28125 -3.863281 11.226562 -6.300781 11.171875 -8.652344 C 13.160156 -9.351562 15.117188 -9.742188 17.191406 -9.742188 C 19.820312 -9.742188 21.949219 -8.484375 21.949219 -6.132812 C 21.949219 -3.554688 19.738281 -2.238281 17.300781 -1.792969 C 16.238281 -1.566406 15.089844 -1.597656 14.054688 -1.597656 L 14.839844 0.617188 C 15.789062 0.589844 17.023438 0.53125 18.253906 0.253906 C 22.0625 -0.671875 24.160156 -2.800781 24.160156 -6.160156 C 24.160156 -9.464844 21.25 -11.675781 17.21875 -11.675781 C 15.398438 -11.675781 13.242188 -11.339844 11.144531 -10.667969 Z M 19.121094 -17.527344 C 20.886719 -16.574219 23.964844 -14.699219 25.335938 -13.382812 L 26.457031 -15.175781 C 25.113281 -16.292969 22.089844 -18.199219 20.128906 -19.234375 Z M 19.121094 -17.527344 "/></g></g></g><g fill="#61745c" fill-opacity="1"><g transform="translate(271.47753, 323.306434)"><g><path d="M 7.082031 -22.089844 C 7.054688 -21.417969 6.972656 -20.578125 6.859375 -19.710938 C 6.523438 -17.46875 6.019531 -13.382812 6.019531 -10.75 C 6.019531 -8.960938 6.160156 -7.390625 6.300781 -6.355469 L 8.484375 -6.523438 C 8.289062 -7.894531 8.289062 -8.847656 8.425781 -9.910156 C 8.761719 -13.550781 11.953125 -18.5625 15.398438 -18.5625 C 18.339844 -18.5625 19.792969 -15.425781 19.792969 -11.058594 C 19.792969 -4.085938 15.089844 -1.679688 9.070312 -0.757812 L 10.386719 1.261719 C 17.273438 0 22.117188 -3.386719 22.117188 -11.085938 C 22.117188 -16.910156 19.457031 -20.605469 15.761719 -20.605469 C 12.261719 -20.605469 9.351562 -17.164062 8.257812 -14.308594 C 8.425781 -16.238281 8.960938 -19.960938 9.546875 -22.007812 Z M 7.082031 -22.089844 "/></g></g></g></svg>